# xmcd
#
# Track frame offsets: 
#        150
#        15090
#        28790
#        45954
#        62901
#        76240
#        92282
#        110175
#        125866
#        140647
#        156345
#        169286
#        188230
#
# Disc length: 3014 seconds
#
# Revision: 1
# Processed by: cddbd v1.5.2PL0 Copyright (c) Steve Scherf et al.
# Submitted via: ExactAudioCopy v0.95b4
#
DISCID=aa0bc40d
DTITLE=Kids in the Way - Apparitions of Melody: The Dead Letters Editi
DTITLE=on
DYEAR=2006
DGENRE=Rock
TTITLE0=Fiction
TTITLE1=Apparitions of Melody
TTITLE2=Safety in the Darkness
TTITLE3=Even Snakes Have Hearts
TTITLE4=Getting Over You Getting Over Me
TTITLE5=Last Day of 1888
TTITLE6=Breaking the Legs of Sheep
TTITLE7=The Seed We've Sown
TTITLE8=Sad and Guilty Ways
TTITLE9=Blind Behind the Wheel
TTITLE10=Burt Rutan
TTITLE11=Head Over Heels
TTITLE12=This Could be the Song that Will Change Your Heart
EXTD=YEAR: 2006
EXTT0=
EXTT1=
EXTT2=
EXTT3=
EXTT4=
EXTT5=
EXTT6=
EXTT7=
EXTT8=
EXTT9=
EXTT10=
EXTT11=
EXTT12=
PLAYORDER=
